<svg width="136" height="175" viewBox="0 0 136 175" fill="none" xmlns="http://www.w3.org/2000/svg">
<path d="M70.974 2.90244L23.8522 84.0795C22.3738 86.6263 24.2097 89.8202 27.1556 89.8202H42.4787C43.866 89.8202 44.7445 91.3124 44.0691 92.5274L2.5065 167.296C0.395809 171.093 5.25227 174.916 8.44285 171.955L126.237 62.6442C128.782 60.2823 127.113 56.0208 123.639 56.0208H108.233C106.833 56.0208 105.956 54.5044 106.656 53.2892L133.485 6.7302C134.953 4.18331 133.116 1 130.176 1H74.2774C72.9159 1 71.6575 1.72491 70.974 2.90244Z" fill="url(#paint0_linear_100_5666)" stroke="url(#paint1_linear_100_5666)" stroke-width="2"/>
<defs>
<linearGradient id="paint0_linear_100_5666" x1="101.195" y1="14.949" x2="3.7714" y2="157.41" gradientUnits="userSpaceOnUse">
<stop offset="0.182844" stop-color="#FFE600"/>
<stop offset="0.980542" stop-color="#F09000"/>
</linearGradient>
<linearGradient id="paint1_linear_100_5666" x1="34.2416" y1="-46.6722" x2="104.142" y2="243.214" gradientUnits="userSpaceOnUse">
<stop offset="0.14688" stop-color="#FFE600"/>
<stop offset="0.938214" stop-color="#F09000"/>
</linearGradient>
</defs>
</svg>
