<svg width="21" height="21" viewBox="0 0 21 21" fill="none" xmlns="http://www.w3.org/2000/svg">
<path d="M20.5493 19.2894L16.8393 15.6094C18.2794 13.8138 18.9768 11.5347 18.7881 9.24072C18.5994 6.94672 17.5389 4.8122 15.8248 3.27606C14.1106 1.73992 11.8731 0.918926 9.57218 0.981887C7.2713 1.04485 5.08198 1.98698 3.4544 3.61456C1.82682 5.24214 0.884691 7.43145 0.82173 9.73234C0.75877 12.0332 1.57977 14.2708 3.1159 15.9849C4.65204 17.6991 6.78656 18.7595 9.08056 18.9482C11.3746 19.1369 13.6537 18.4395 15.4493 16.9994L19.1293 20.6794C19.2222 20.7731 19.3328 20.8475 19.4547 20.8983C19.5765 20.9491 19.7072 20.9752 19.8393 20.9752C19.9713 20.9752 20.102 20.9491 20.2238 20.8983C20.3457 20.8475 20.4563 20.7731 20.5493 20.6794C20.7295 20.493 20.8302 20.2438 20.8302 19.9844C20.8302 19.7251 20.7295 19.4759 20.5493 19.2894ZM9.83926 16.9994C8.45479 16.9994 7.10141 16.5889 5.95027 15.8197C4.79912 15.0505 3.90192 13.9573 3.3721 12.6782C2.84229 11.3991 2.70367 9.99165 2.97376 8.63378C3.24386 7.27592 3.91054 6.02864 4.88951 5.04967C5.86848 4.0707 7.11576 3.40402 8.47363 3.13392C9.8315 2.86382 11.239 3.00245 12.518 3.53226C13.7971 4.06207 14.8904 4.95928 15.6595 6.11042C16.4287 7.26157 16.8393 8.61495 16.8393 9.99942C16.8393 11.8559 16.1018 13.6364 14.789 14.9492C13.4763 16.2619 11.6958 16.9994 9.83926 16.9994Z" fill="#080338"/>
</svg>
