<svg width="279" height="222" viewBox="0 0 279 222" fill="none" xmlns="http://www.w3.org/2000/svg">
<mask id="path-1-outside-1_1323_6647" maskUnits="userSpaceOnUse" x="60.5494" y="5.37366" width="129" height="144" fill="black">
<rect fill="white" x="60.5494" y="5.37366" width="129" height="144"/>
<path fill-rule="evenodd" clip-rule="evenodd" d="M184.445 122.402C182.809 122.518 181.158 122.577 179.493 122.577C141.323 122.577 110.381 91.5056 110.381 53.1765C110.381 36.0996 116.523 20.4633 126.71 8.37366C90.8514 10.9229 62.5494 40.9421 62.5494 77.5991C62.5494 115.928 93.4921 147 131.662 147C152.826 147 171.767 137.448 184.445 122.402Z"/>
</mask>
<path fill-rule="evenodd" clip-rule="evenodd" d="M184.445 122.402C182.809 122.518 181.158 122.577 179.493 122.577C141.323 122.577 110.381 91.5056 110.381 53.1765C110.381 36.0996 116.523 20.4633 126.71 8.37366C90.8514 10.9229 62.5494 40.9421 62.5494 77.5991C62.5494 115.928 93.4921 147 131.662 147C152.826 147 171.767 137.448 184.445 122.402Z" fill="url(#paint0_linear_1323_6647)"/>
<path d="M184.445 122.402L185.974 123.691L189.024 120.071L184.303 120.407L184.445 122.402ZM126.71 8.37366L128.239 9.66238L131.289 6.04307L126.568 6.37869L126.71 8.37366ZM184.303 120.407C182.715 120.52 181.111 120.577 179.493 120.577V124.577C181.206 124.577 182.904 124.517 184.587 124.397L184.303 120.407ZM179.493 120.577C142.436 120.577 112.381 90.4089 112.381 53.1765H108.381C108.381 92.6023 140.211 124.577 179.493 124.577V120.577ZM112.381 53.1765C112.381 36.5878 118.345 21.4042 128.239 9.66238L125.18 7.08493C114.7 19.5224 108.381 35.6115 108.381 53.1765H112.381ZM64.5494 77.5991C64.5494 41.9921 92.0397 12.8435 126.852 10.3686L126.568 6.37869C89.6631 9.00233 60.5494 39.8921 60.5494 77.5991H64.5494ZM131.662 145C94.6045 145 64.5494 114.831 64.5494 77.5991H60.5494C60.5494 117.025 92.3797 149 131.662 149V145ZM182.916 121.113C170.601 135.728 152.209 145 131.662 145V149C153.442 149 172.934 139.167 185.974 123.691L182.916 121.113Z" fill="url(#paint1_linear_1323_6647)" mask="url(#path-1-outside-1_1323_6647)"/>
<path d="M36.694 14.3963L31.4806 3.5381C29.8557 0.153972 25.1333 0.153965 23.5084 3.53809L18.295 14.3963C17.9337 15.1488 17.2427 15.6572 16.4588 15.7742L4.8012 17.5154C1.13055 18.0637 -0.259543 22.6424 2.33474 25.2417L10.7703 33.6936C11.3495 34.2739 11.6201 35.1185 11.481 35.9522L9.48962 47.8865C8.88132 51.532 12.6308 54.4476 15.9424 52.6581L26.3692 47.0235C27.0747 46.6423 27.9143 46.6423 28.6198 47.0235L39.0466 52.6581C42.3582 54.4476 46.1077 51.532 45.4994 47.8865L43.508 35.9522C43.3689 35.1185 43.6395 34.2739 44.2187 33.6936L52.6543 25.2417C55.2485 22.6424 53.8585 18.0637 50.1878 17.5154L38.5302 15.7742C37.7463 15.6572 37.0553 15.1488 36.694 14.3963Z" fill="url(#paint2_linear_1323_6647)" stroke="url(#paint3_linear_1323_6647)" stroke-width="2"/>
<path d="M190.786 65.4702L187.365 58.5761C186.17 56.167 182.721 56.167 181.525 58.5761L178.104 65.4702C177.922 65.8369 177.568 66.0936 177.157 66.1531L169.507 67.2586C166.841 67.6438 165.761 70.9131 167.702 72.7954L173.238 78.1617C173.534 78.4482 173.667 78.8592 173.598 79.2608L172.291 86.8381C171.832 89.5007 174.637 91.5044 177.015 90.2608L183.858 86.6832C184.225 86.4912 184.665 86.4912 185.032 86.6832L191.875 90.2608C194.254 91.5044 197.058 89.5007 196.599 86.8381L195.292 79.2608C195.223 78.8592 195.356 78.4482 195.652 78.1617L201.188 72.7954C203.129 70.9131 202.049 67.6438 199.384 67.2586L191.733 66.1531C191.322 66.0936 190.968 65.8369 190.786 65.4702Z" fill="url(#paint4_linear_1323_6647)" stroke="url(#paint5_linear_1323_6647)" stroke-width="2"/>
<path fill-rule="evenodd" clip-rule="evenodd" d="M221.06 66.5C221.06 62.9101 223.97 60 227.56 60C243.835 60 257 73.2235 257 89.5C257 105.776 243.835 119 227.56 119H134C130.41 119 127.5 116.09 127.5 112.5C127.5 108.91 130.41 106 134 106H227.56C236.624 106 244 98.6286 244 89.5C244 80.3714 236.624 73 227.56 73C223.97 73 221.06 70.0899 221.06 66.5ZM82 141.5C82 137.91 84.9101 135 88.5 135L216.5 135C220.09 135 223 137.91 223 141.5C223 145.09 220.09 148 216.5 148L88.5 148C84.9101 148 82 145.09 82 141.5ZM231 141.5C231 137.91 233.91 135 237.5 135H265.5C269.09 135 272 137.91 272 141.5C272 145.09 269.09 148 265.5 148H237.5C233.91 148 231 145.09 231 141.5ZM92 169.5C92 165.91 94.9101 163 98.5 163H126.5C130.09 163 133 165.91 133 169.5C133 173.09 130.09 176 126.5 176H98.5C94.9101 176 92 173.09 92 169.5ZM142 169.5C142 165.91 144.91 163 148.5 163H249.584C265.852 163 279 176.23 279 192.5C279 208.77 265.852 222 249.584 222C245.994 222 243.084 219.09 243.084 215.5C243.084 211.91 245.994 209 249.584 209C258.628 209 266 201.635 266 192.5C266 183.365 258.628 176 249.584 176H148.5C144.91 176 142 173.09 142 169.5Z" fill="url(#paint6_linear_1323_6647)"/>
<defs>
<linearGradient id="paint0_linear_1323_6647" x1="136.323" y1="52.566" x2="106.915" y2="146.931" gradientUnits="userSpaceOnUse">
<stop stop-color="#FFEFB8"/>
<stop offset="1" stop-color="#FFD600"/>
</linearGradient>
<linearGradient id="paint1_linear_1323_6647" x1="56.6719" y1="-12.7645" x2="164.554" y2="170.827" gradientUnits="userSpaceOnUse">
<stop stop-color="#FFF2AF"/>
<stop offset="1" stop-color="#CEBA00"/>
</linearGradient>
<linearGradient id="paint2_linear_1323_6647" x1="34.4476" y1="17.5357" x2="13.8314" y2="51.6387" gradientUnits="userSpaceOnUse">
<stop stop-color="#FFF59F"/>
<stop offset="1" stop-color="#EDD500"/>
</linearGradient>
<linearGradient id="paint3_linear_1323_6647" x1="8.37363" y1="-1.58517" x2="46.0738" y2="69.1718" gradientUnits="userSpaceOnUse">
<stop stop-color="#FFF6A6"/>
<stop offset="1" stop-color="#D1BC00"/>
</linearGradient>
<linearGradient id="paint4_linear_1323_6647" x1="189.008" y1="67.6332" x2="176.123" y2="89.6629" gradientUnits="userSpaceOnUse">
<stop stop-color="#FFF59F"/>
<stop offset="1" stop-color="#EDD500"/>
</linearGradient>
<linearGradient id="paint5_linear_1323_6647" x1="171.897" y1="55.493" x2="195.388" y2="101.062" gradientUnits="userSpaceOnUse">
<stop stop-color="#FFF6A6"/>
<stop offset="1" stop-color="#D1BC00"/>
</linearGradient>
<linearGradient id="paint6_linear_1323_6647" x1="253.282" y1="73.365" x2="138.689" y2="209.317" gradientUnits="userSpaceOnUse">
<stop stop-color="#D6E9FF"/>
<stop offset="1" stop-color="#2898FF"/>
</linearGradient>
</defs>
</svg>
